#N canvas 77 106 636 687 10;
#X obj 177 310 readanysf~;
#X msg 169 262 play;
#X obj 197 482 dac~;
#X obj 94 291 openpanel;
#X msg 101 314 open \$1;
#X obj 93 261 bng 25 250 50 0 empty empty empty 17 7 0 10 -257985 -1
-1;
#X msg 96 211 speed \$1;
#X floatatom 282 187 16 0 0 0 - - -;
#X obj 285 166 hsl 128 15 0 500 0 0 empty empty seek -2 -8 0 10 -4032
-1 -1 635 1;
#X msg 282 209 time_seek \$1;
#X floatatom 96 189 16 0 0 0 - - -;
#X obj 131 167 hsl 128 15 1e-06 2 0 0 empty empty speed -2 -8 0 10
-4034 -1 -1 2812 1;
#X msg 99 153 1;
#X msg 60 153 0.21;
#X msg 131 347 pause;
#X msg 97 347 stop;
#X floatatom 438 239 5 0 0 0 - - -;
#X obj 559 239 bng 15 250 50 0 empty empty empty 17 7 0 10 -262144
-1 -1;
#X obj 297 258 route ready samplerate length cache float bang;
#X floatatom 514 238 5 0 0 0 - - -;
#X obj 363 85 random;
#X msg 362 63 bang;
#X floatatom 363 106 5 0 0 0 - - -;
#X obj 63 316 print;
#X floatatom 127 133 5 0 0 0 - - -;
#X msg 132 60 bang;
#X obj 125 89 random 20000;
#X obj 127 110 / 15000;
#X obj 295 42 tgl 15 0 empty empty empty 17 7 0 10 -262144 -1 -1 0
1;
#X obj 296 62 metro 500;
#X floatatom 346 41 16 0 0 0 - - -;
#X obj 347 21 hsl 128 15 0 1000 0 1 empty empty seek_rate -2 -8 0 10
-258113 -1 -1 0 0;
#X obj 63 38 tgl 15 0 empty empty empty 17 7 0 10 -262144 -1 -1 0 1
;
#X obj 63 60 metro 500;
#X floatatom 112 38 16 0 0 0 - - -;
#X obj 115 16 hsl 128 15 0 1000 0 0 empty empty speed_rate -2 -8 0
10 -258113 -1 -1 0 0;
#X obj 225 383 pan~;
#X obj 163 380 pan~;
#X floatatom 187 358 5 -45 45 0 - - -;
#X floatatom 246 358 5 -45 45 0 - - -;
#X obj 289 309 hsl 128 15 -45 45 0 0 empty empty pan -2 -8 0 10 -232576
-1 -1 8326 1;
#X obj 286 332 * -1;
#X msg 458 351 bang;
#X floatatom 459 423 5 0 0 0 - - -;
#X obj 391 330 tgl 15 0 empty empty empty 17 7 0 10 -262144 -1 -1 0
1;
#X obj 392 350 metro 500;
#X floatatom 442 329 16 0 0 0 - - -;
#X obj 447 309 hsl 128 15 0 1000 0 1 empty empty pan_rate -2 -8 0 10
-258113 -1 -1 0 0;
#X obj 459 373 random 90;
#X obj 459 398 - 45;
#X msg 252 333 0;
#X obj 236 435 *~ 0.1;
#X obj 155 435 *~ 0.1;
#X obj 309 379 vsl 15 128 0 0.7 0 0 empty empty vol 0 -9 0 10 -204800
-1 -1 0 1;
#X connect 0 0 37 0;
#X connect 0 1 36 0;
#X connect 0 2 18 0;
#X connect 1 0 0 0;
#X connect 3 0 4 0;
#X connect 3 0 23 0;
#X connect 4 0 0 0;
#X connect 5 0 3 0;
#X connect 6 0 0 0;
#X connect 7 0 9 0;
#X connect 8 0 7 0;
#X connect 9 0 0 0;
#X connect 10 0 6 0;
#X connect 11 0 10 0;
#X connect 12 0 10 0;
#X connect 13 0 10 0;
#X connect 14 0 0 0;
#X connect 15 0 0 0;
#X connect 16 0 20 1;
#X connect 18 2 16 0;
#X connect 18 4 19 0;
#X connect 18 5 17 0;
#X connect 20 0 22 0;
#X connect 21 0 20 0;
#X connect 22 0 8 0;
#X connect 24 0 11 0;
#X connect 25 0 26 0;
#X connect 26 0 27 0;
#X connect 27 0 24 0;
#X connect 28 0 29 0;
#X connect 29 0 20 0;
#X connect 30 0 29 1;
#X connect 31 0 30 0;
#X connect 32 0 33 0;
#X connect 33 0 26 0;
#X connect 34 0 33 1;
#X connect 35 0 34 0;
#X connect 36 0 52 0;
#X connect 36 1 51 0;
#X connect 37 0 52 0;
#X connect 37 1 51 0;
#X connect 38 0 37 1;
#X connect 39 0 36 1;
#X connect 40 0 38 0;
#X connect 40 0 41 0;
#X connect 41 0 39 0;
#X connect 42 0 48 0;
#X connect 43 0 40 0;
#X connect 44 0 45 0;
#X connect 45 0 48 0;
#X connect 46 0 45 1;
#X connect 47 0 46 0;
#X connect 48 0 49 0;
#X connect 49 0 43 0;
#X connect 50 0 39 0;
#X connect 50 0 38 0;
#X connect 51 0 2 1;
#X connect 52 0 2 0;
#X connect 53 0 52 1;
#X connect 53 0 51 1;
